<?xml version="1.0" encoding="utf-8"?>
<!-- Generator: Adobe Illustrator 19.2.0, SVG Export Plug-In . SVG Version: 6.00 Build 0)  -->
<svg version="1.1" id="Layer_1" xmlns="http://www.w3.org/2000/svg" xmlns:xlink="http://www.w3.org/1999/xlink" x="0px" y="0px"
	 viewBox="0 0 74 73" style="enable-background:new 0 0 74 73;" xml:space="preserve">
<style type="text/css">
	.st0{fill:#47A4AD;}
	.st1{fill-rule:evenodd;clip-rule:evenodd;fill:url(#SVGID_1_);}
</style>
<g>
	<g>
		<path class="st0" d="M5.6,16c0,0-0.2,0,1.8-0.2l0.1,0c1.3-0.1,2.5-0.2,3.7-0.3c0.9,0,0.9,0,0.9,0c5.5-0.2,11.1,0.3,16.3,2.2
			c1.4,0.5,2.8,1.2,4.1,1.9c2.3,1.4,3.1,2,4.4,3.3c0.8,0.8,1.6,1.6,2.2,2.5c0.9,1.1,1.6,2.3,2.3,3.5c0.4,0.8,0.8,1.7,1.2,2.6
			c0.9,2.1,1.5,4.3,1.9,6.6c0,0,0,0,0.3,1.9c0.2,1.5,0.4,3.1,0.5,4.6c0.1,0.9,0.1,0.9,0.1,0.9c0.3,4.7-0.5,17.8-0.5,17.8
			c-0.1,1.5-0.1,3.1-0.1,4.6c0,1.2,0.1,2.4,0.5,3.5c4.3,0.3,8.7,0,12.6-1.7c1.1-0.5,2.1-1,3.1-1.6c0.3-0.1,0.6-0.3,0.8-0.5
			c0.4-0.3,0.9-0.7,1.3-1c0.8-0.6,1.5-1.3,2.1-2.1c1.3-1.7,2.5-3.5,3.4-5.4c0.7-1.4,1.2-2.9,1.6-4.4c0.4-1.4,0.8-3,1.1-4.5
			c0,0,0.6-3.2,0.8-6c0.9-9.7,0.1-20.5-0.6-29.9l-0.3-5.4c0-0.6-0.2-6.1-0.2-6.7l-3.2-0.1l-0.2,0c-2.3,0-2.9-0.1-4.8-0.1
			c0,0-7-0.1-9-0.1l-0.4,0l-0.5,0c-2.4,0-5.3,0-5.3,0c-2.1,0-2.9,0-4.7,0l-0.9,0l-0.9,0l0,0l-1.8,0l-0.6,0c-2.1,0.1-2.7,0.1-4.7,0.1
			c-0.4,0-0.7,0-1,0c-2,0.1-3,0.2-4.8,0.3l-0.4,0c-1.9,0.2-3.7,0.4-5.6,0.7l-0.9,0.2c-0.9,0.2-1.7,0.3-2.5,0.5
			C16.1,4,15.4,4.3,13.8,5c-2.5,1.1-4.3,2.5-5.9,4.3c-1.8,2.1-4,5.8-4.5,7C3.4,16.3,4.9,16.1,5.6,16z"/>
	</g>
	<linearGradient id="SVGID_1_" gradientUnits="userSpaceOnUse" x1="19.9023" y1="99.8988" x2="19.9023" y2="-6.0689">
		<stop  offset="0" style="stop-color:#54A175"/>
		<stop  offset="1" style="stop-color:#A5CD39"/>
	</linearGradient>
	<path class="st1" d="M38.4,71.4C6.8,71.5-2.1,74.7,2.5,24C37.2,23.4,38.3,34.3,38,67.5L18.6,48.7L38.4,71.4z"/>
</g>
</svg>
